<svg width="31" height="40" viewBox="0 0 31 40" fill="none" xmlns="http://www.w3.org/2000/svg">
<path d="M0 40L10.85 16.6387C7.4821 16.1905 5.03272 15.07 3.50185 13.2773C1.97099 11.4472 1.20556 9.0943 1.20556 6.21849V0H10.1037V4.53782C10.1037 6.59197 10.563 8.06723 11.4815 8.96359C12.4383 9.85994 14.0074 10.3081 16.1889 10.3081H23.1352L9.52963 40H0ZM21.5852 40C21.5469 36.7134 21.279 34.0803 20.7815 32.1008C20.3222 30.1214 19.6333 28.5901 18.7148 27.507C17.7963 26.3866 16.629 25.5275 15.213 24.93L18.3704 18.2633C21.1642 19.1223 23.4796 20.4669 25.3167 22.2969C27.192 24.0896 28.5889 26.4426 29.5074 29.3557C30.4642 32.2316 30.9617 35.7796 31 40H21.5852Z" fill="url(#paint0_linear_16_40)"/>
<defs>
<linearGradient id="paint0_linear_16_40" x1="12.504" y1="16.8032" x2="29.0014" y2="40.3816" gradientUnits="userSpaceOnUse">
<stop stop-color="#FF7E00"/>
<stop offset="1" stop-color="#AA0000"/>
</linearGradient>
</defs>
</svg>
